<?xml version="1.0" standalone="no"?>
<!DOCTYPE svg PUBLIC "-//W3C//DTD SVG 20010904//EN"
 "http://www.w3.org/TR/2001/REC-SVG-20010904/DTD/svg10.dtd">
<svg version="1.0" xmlns="http://www.w3.org/2000/svg"
 width="512.000000pt" height="512.000000pt" viewBox="0 0 512.000000 512.000000"
 preserveAspectRatio="xMidYMid meet">
<metadata>
Created by potrace 1.14, written by Peter Selinger 2001-2017
</metadata>
<g transform="translate(0.000000,512.000000) scale(0.100000,-0.100000)"
fill="#000000" stroke="none">
<path d="M2880 5030 c-47 -10 -113 -28 -147 -40 -35 -12 -75 -20 -90 -18 -24
3 -31 -3 -54 -46 -32 -58 -39 -63 -104 -71 -179 -24 -414 -86 -532 -140 -17
-8 -34 -15 -37 -15 -17 0 -143 -86 -176 -121 -31 -33 -45 -61 -70 -142 -37
-122 -40 -134 -75 -262 -14 -55 -28 -104 -29 -110 -2 -5 -9 10 -16 35 -15 54
-51 118 -88 155 -67 69 -225 115 -390 115 -114 0 -178 -14 -216 -49 -28 -26
-28 -27 -23 -113 4 -59 2 -88 -5 -88 -14 0 -186 98 -193 111 -13 19 -81 8
-144 -23 -72 -37 -153 -119 -191 -195 -22 -42 -25 -61 -25 -158 0 -94 3 -116
22 -151 67 -126 265 -214 488 -216 88 -2 105 -4 105 -17 0 -34 83 -141 177
-227 212 -197 223 -203 345 -211 66 -5 82 -10 112 -35 33 -27 36 -34 36 -84 0
-137 119 -235 303 -251 63 -6 67 -7 61 -27 -9 -31 -74 -159 -90 -176 -7 -9
-20 -32 -28 -52 -10 -24 -30 -44 -57 -60 -76 -42 -104 -106 -86 -198 4 -25 5
-75 2 -111 -5 -61 -4 -67 17 -81 20 -12 106 -42 273 -93 48 -15 53 -34 32
-119 -9 -34 -18 -74 -22 -89 -4 -21 -16 -33 -48 -46 -23 -10 -63 -37 -89 -60
-68 -61 -79 -94 -124 -385 -19 -124 -20 -125 -119 -176 -33 -18 -85 -48 -115
-68 -47 -32 -55 -43 -61 -77 -12 -75 -18 -250 -10 -306 8 -64 28 -89 120 -154
122 -85 239 -122 476 -151 139 -17 149 -17 247 1 116 20 226 48 256 64 33 17
42 13 42 -19 0 -25 4 -30 25 -30 14 0 47 -14 75 -31 107 -66 300 -129 458
-150 238 -32 594 55 714 174 12 11 27 15 42 11 41 -10 54 52 52 246 -1 182 3
169 -75 258 -13 15 -35 44 -49 65 -13 20 -29 37 -33 37 -5 0 -9 20 -9 44 l0
43 68 -19 c44 -12 115 -21 207 -25 127 -5 145 -3 195 16 38 15 61 31 75 53
l20 32 100 2 c114 2 151 14 235 76 120 89 167 169 158 274 -6 69 -40 120 -126
185 -70 54 -135 78 -234 86 -38 3 -68 10 -68 14 0 5 4 9 9 9 4 0 20 12 35 26
19 19 26 37 26 63 0 42 -45 283 -58 309 -5 9 -17 55 -28 102 -22 98 -53 138
-140 176 -63 28 -79 50 -92 124 -10 53 -9 56 25 108 34 51 63 133 63 178 0 91
-89 212 -193 262 l-58 28 114 47 c117 49 235 114 273 151 35 35 68 98 86 166
46 171 80 331 94 441 8 67 17 125 19 129 3 4 5 72 6 151 1 180 -6 202 -99 282
-128 109 -232 175 -387 242 -82 36 -156 69 -164 73 -8 5 -23 33 -33 62 -19 56
-64 112 -108 135 -68 35 -280 99 -410 123 -127 23 -365 24 -470 2z"/>
</g>
</svg>
